<svg width="24" height="24" viewBox="0 0 24 24" fill="none" xmlns="http://www.w3.org/2000/svg">
<path fill-rule="evenodd" clip-rule="evenodd" d="M7 2C5.34315 2 4 3.34315 4 5V19C4 20.6569 5.34315 22 7 22H17C18.6569 22 20 20.6569 20 19V5C20 3.34315 18.6569 2 17 2H7ZM7 6C7 5.44772 7.44772 5 8 5H16C16.5523 5 17 5.44772 17 6V8V10C17 10.5523 16.5523 11 16 11H8C7.44772 11 7 10.5523 7 10V8V6ZM8 13C7.44772 13 7 13.4477 7 14C7 14.5523 7.44772 15 8 15H8.01C8.56228 15 9.01 14.5523 9.01 14C9.01 13.4477 8.56228 13 8.01 13H8ZM11 14C11 13.4477 11.4477 13 12 13H12.01C12.5623 13 13.01 13.4477 13.01 14C13.01 14.5523 12.5623 15 12.01 15H12C11.4477 15 11 14.5523 11 14ZM12 16C11.4477 16 11 16.4477 11 17C11 17.5523 11.4477 18 12 18H12.01C12.5623 18 13.01 17.5523 13.01 17C13.01 16.4477 12.5623 16 12.01 16H12ZM7 17C7 16.4477 7.44772 16 8 16H8.01C8.56228 16 9.01 16.4477 9.01 17C9.01 17.5523 8.56228 18 8.01 18H8C7.44772 18 7 17.5523 7 17ZM17 14C17 13.4477 16.5523 13 16 13C15.4477 13 15 13.4477 15 14V17C15 17.5523 15.4477 18 16 18C16.5523 18 17 17.5523 17 17V14Z" fill="black"/>
</svg>
